<mxfile host="65bd71144e">
    <diagram id="VRdQCD-WoQKPxcEu3UJT" name="Страница 1">
        <mxGraphModel dx="2152" dy="1012" grid="1" gridSize="10" guides="1" tooltips="1" connect="1" arrows="1" fold="1" page="1" pageScale="1" pageWidth="827" pageHeight="1169" math="0" shadow="0">
            <root>
                <mxCell id="0"/>
                <mxCell id="1" parent="0"/>
                <mxCell id="21" value="Isolated Service" style="verticalAlign=top;align=left;shape=cube;size=10;direction=south;fontStyle=0;html=1;boundedLbl=1;spacingLeft=5;" vertex="1" parent="1">
                    <mxGeometry x="-820" y="200" width="1080" height="1050" as="geometry"/>
                </mxCell>
                <mxCell id="77" value="Dictionary Module" style="shape=module;align=left;spacingLeft=20;align=center;verticalAlign=top;" vertex="1" parent="1">
                    <mxGeometry x="-770" y="780" width="290" height="200" as="geometry"/>
                </mxCell>
                <mxCell id="24" value="Thrid Party Services" style="shape=module;align=left;spacingLeft=20;align=center;verticalAlign=top;" vertex="1" parent="1">
                    <mxGeometry x="-110" y="240" width="320" height="190" as="geometry"/>
                </mxCell>
                <mxCell id="4" value="«interface»&lt;br&gt;&lt;b&gt;Dictionary&lt;/b&gt;" style="html=1;" vertex="1" parent="1">
                    <mxGeometry x="-610" y="810" width="110" height="50" as="geometry"/>
                </mxCell>
                <mxCell id="5" value="«interface»&lt;br&gt;&lt;b&gt;Exercise&lt;/b&gt;" style="html=1;" vertex="1" parent="1">
                    <mxGeometry x="-630" y="660" width="110" height="50" as="geometry"/>
                </mxCell>
                <mxCell id="9" value="Isolated Service" style="verticalAlign=top;align=left;shape=cube;size=10;direction=south;fontStyle=0;html=1;boundedLbl=1;spacingLeft=5;" vertex="1" parent="1">
                    <mxGeometry x="403" y="210" width="180" height="130" as="geometry"/>
                </mxCell>
                <mxCell id="11" value="Redis" style="shape=module;align=left;spacingLeft=20;align=center;verticalAlign=top;" vertex="1" parent="1">
                    <mxGeometry x="433" y="270" width="100" height="50" as="geometry"/>
                </mxCell>
                <mxCell id="13" value="Isolated Service" style="verticalAlign=top;align=left;shape=cube;size=10;direction=south;fontStyle=0;html=1;boundedLbl=1;spacingLeft=5;" vertex="1" parent="1">
                    <mxGeometry x="403" y="370" width="180" height="130" as="geometry"/>
                </mxCell>
                <mxCell id="14" value="PostgreSQL" style="shape=module;align=left;spacingLeft=20;align=center;verticalAlign=top;" vertex="1" parent="1">
                    <mxGeometry x="437" y="420" width="100" height="50" as="geometry"/>
                </mxCell>
                <mxCell id="15" value="Isolated Service" style="verticalAlign=top;align=left;shape=cube;size=10;direction=south;fontStyle=0;html=1;boundedLbl=1;spacingLeft=5;" vertex="1" parent="1">
                    <mxGeometry x="403" y="540" width="180" height="130" as="geometry"/>
                </mxCell>
                <mxCell id="16" value="«interface»&lt;br&gt;&lt;b&gt;S3 Storage&lt;/b&gt;" style="html=1;" vertex="1" parent="1">
                    <mxGeometry x="-75" y="355" width="110" height="50" as="geometry"/>
                </mxCell>
                <mxCell id="18" value="SFTP FileServer" style="html=1;" vertex="1" parent="1">
                    <mxGeometry x="433" y="590" width="110" height="50" as="geometry"/>
                </mxCell>
                <mxCell id="35" style="edgeStyle=orthogonalEdgeStyle;rounded=0;orthogonalLoop=1;jettySize=auto;html=1;entryX=0;entryY=0.5;entryDx=0;entryDy=0;" edge="1" parent="1" source="25" target="18">
                    <mxGeometry relative="1" as="geometry"/>
                </mxCell>
                <mxCell id="25" value="SFTP Storage" style="html=1;" vertex="1" parent="1">
                    <mxGeometry x="75" y="355" width="110" height="50" as="geometry"/>
                </mxCell>
                <mxCell id="27" value="" style="endArrow=block;dashed=1;endFill=0;endSize=12;html=1;exitX=0;exitY=0.5;exitDx=0;exitDy=0;entryX=1;entryY=0.5;entryDx=0;entryDy=0;" edge="1" parent="1" source="25" target="16">
                    <mxGeometry width="160" relative="1" as="geometry">
                        <mxPoint x="-110" y="510" as="sourcePoint"/>
                        <mxPoint x="50" y="510" as="targetPoint"/>
                    </mxGeometry>
                </mxCell>
                <mxCell id="29" value="«interface»&lt;br&gt;&lt;b&gt;KeyValueStorage&lt;/b&gt;" style="html=1;" vertex="1" parent="1">
                    <mxGeometry x="-75" y="285" width="110" height="50" as="geometry"/>
                </mxCell>
                <mxCell id="34" style="edgeStyle=orthogonalEdgeStyle;rounded=0;orthogonalLoop=1;jettySize=auto;html=1;entryX=0;entryY=0;entryDx=0;entryDy=15;entryPerimeter=0;" edge="1" parent="1" source="30" target="11">
                    <mxGeometry relative="1" as="geometry"/>
                </mxCell>
                <mxCell id="30" value="Redis Client" style="html=1;" vertex="1" parent="1">
                    <mxGeometry x="75" y="285" width="110" height="50" as="geometry"/>
                </mxCell>
                <mxCell id="31" value="" style="endArrow=block;dashed=1;endFill=0;endSize=12;html=1;exitX=0;exitY=0.5;exitDx=0;exitDy=0;entryX=1;entryY=0.5;entryDx=0;entryDy=0;" edge="1" parent="1" source="30" target="29">
                    <mxGeometry width="160" relative="1" as="geometry">
                        <mxPoint x="90" y="315" as="sourcePoint"/>
                        <mxPoint x="50" y="315" as="targetPoint"/>
                    </mxGeometry>
                </mxCell>
                <mxCell id="43" value="Auth Module" style="shape=module;align=left;spacingLeft=20;align=center;verticalAlign=top;" vertex="1" parent="1">
                    <mxGeometry x="-460" y="280" width="313" height="220" as="geometry"/>
                </mxCell>
                <mxCell id="2" value="«interface»&lt;br&gt;&lt;b&gt;Auth&lt;/b&gt;" style="html=1;" vertex="1" parent="1">
                    <mxGeometry x="-280" y="320" width="110" height="50" as="geometry"/>
                </mxCell>
                <mxCell id="44" value="ApiController" style="html=1;" vertex="1" parent="1">
                    <mxGeometry x="-427" y="320" width="110" height="50" as="geometry"/>
                </mxCell>
                <mxCell id="45" value="AuthService" style="html=1;" vertex="1" parent="1">
                    <mxGeometry x="-350" y="440" width="110" height="50" as="geometry"/>
                </mxCell>
                <mxCell id="47" value="Use" style="endArrow=open;endSize=12;dashed=1;html=1;exitX=0.5;exitY=1;exitDx=0;exitDy=0;entryX=0;entryY=0.5;entryDx=0;entryDy=0;rounded=0;" edge="1" parent="1" source="44" target="45">
                    <mxGeometry width="160" relative="1" as="geometry">
                        <mxPoint x="-60" y="440" as="sourcePoint"/>
                        <mxPoint x="100" y="440" as="targetPoint"/>
                        <Array as="points">
                            <mxPoint x="-372" y="465"/>
                        </Array>
                    </mxGeometry>
                </mxCell>
                <mxCell id="48" value="" style="endArrow=block;dashed=1;endFill=0;endSize=12;html=1;exitX=1;exitY=0.5;exitDx=0;exitDy=0;entryX=0.5;entryY=1;entryDx=0;entryDy=0;rounded=0;" edge="1" parent="1" source="45" target="2">
                    <mxGeometry width="160" relative="1" as="geometry">
                        <mxPoint x="-60" y="440" as="sourcePoint"/>
                        <mxPoint x="100" y="440" as="targetPoint"/>
                        <Array as="points">
                            <mxPoint x="-225" y="465"/>
                        </Array>
                    </mxGeometry>
                </mxCell>
                <mxCell id="49" value="Use" style="endArrow=open;endSize=12;dashed=1;html=1;exitX=1;exitY=0.75;exitDx=0;exitDy=0;entryX=0;entryY=0.5;entryDx=0;entryDy=0;rounded=0;" edge="1" parent="1" source="45" target="16">
                    <mxGeometry width="160" relative="1" as="geometry">
                        <mxPoint x="-60" y="440" as="sourcePoint"/>
                        <mxPoint x="100" y="440" as="targetPoint"/>
                        <Array as="points">
                            <mxPoint x="-120" y="478"/>
                            <mxPoint x="-120" y="380"/>
                        </Array>
                    </mxGeometry>
                </mxCell>
                <mxCell id="50" value="User Module" style="shape=module;align=left;spacingLeft=20;align=center;verticalAlign=top;" vertex="1" parent="1">
                    <mxGeometry x="-460" y="580" width="310" height="210" as="geometry"/>
                </mxCell>
                <mxCell id="3" value="«interface»&lt;br&gt;&lt;b&gt;User&lt;/b&gt;" style="html=1;" vertex="1" parent="1">
                    <mxGeometry x="-280" y="620" width="110" height="50" as="geometry"/>
                </mxCell>
                <mxCell id="51" value="ApiController" style="html=1;" vertex="1" parent="1">
                    <mxGeometry x="-420" y="620" width="110" height="50" as="geometry"/>
                </mxCell>
                <mxCell id="52" value="UserService" style="html=1;" vertex="1" parent="1">
                    <mxGeometry x="-350" y="710" width="110" height="50" as="geometry"/>
                </mxCell>
                <mxCell id="53" value="" style="endArrow=block;dashed=1;endFill=0;endSize=12;html=1;exitX=1;exitY=0.5;exitDx=0;exitDy=0;entryX=0.5;entryY=1;entryDx=0;entryDy=0;rounded=0;" edge="1" parent="1" source="52" target="3">
                    <mxGeometry width="160" relative="1" as="geometry">
                        <mxPoint x="-60" y="440" as="sourcePoint"/>
                        <mxPoint x="100" y="440" as="targetPoint"/>
                        <Array as="points">
                            <mxPoint x="-225" y="735"/>
                        </Array>
                    </mxGeometry>
                </mxCell>
                <mxCell id="55" value="Use" style="endArrow=open;endSize=12;dashed=1;html=1;exitX=0.25;exitY=1;exitDx=0;exitDy=0;entryX=0;entryY=0.5;entryDx=0;entryDy=0;rounded=0;" edge="1" parent="1" source="51" target="52">
                    <mxGeometry width="160" relative="1" as="geometry">
                        <mxPoint x="-60" y="440" as="sourcePoint"/>
                        <mxPoint x="100" y="440" as="targetPoint"/>
                        <Array as="points">
                            <mxPoint x="-392" y="735"/>
                        </Array>
                    </mxGeometry>
                </mxCell>
                <mxCell id="56" value="Use" style="endArrow=open;endSize=12;dashed=1;html=1;exitX=0.5;exitY=1;exitDx=0;exitDy=0;entryX=0.5;entryY=0;entryDx=0;entryDy=0;rounded=0;" edge="1" parent="1" source="45" target="3">
                    <mxGeometry width="160" relative="1" as="geometry">
                        <mxPoint x="-60" y="440" as="sourcePoint"/>
                        <mxPoint x="100" y="440" as="targetPoint"/>
                        <Array as="points">
                            <mxPoint x="-295" y="550"/>
                            <mxPoint x="-225" y="550"/>
                        </Array>
                    </mxGeometry>
                </mxCell>
                <mxCell id="57" value="Common Module" style="shape=module;align=left;spacingLeft=20;align=center;verticalAlign=top;" vertex="1" parent="1">
                    <mxGeometry x="-100" y="550" width="300" height="390" as="geometry"/>
                </mxCell>
                <mxCell id="58" value="Router" style="html=1;" vertex="1" parent="1">
                    <mxGeometry x="-70" y="585" width="110" height="50" as="geometry"/>
                </mxCell>
                <mxCell id="60" value="«interface»&lt;br&gt;&lt;b&gt;Middleware&lt;/b&gt;" style="html=1;" vertex="1" parent="1">
                    <mxGeometry x="60" y="585" width="110" height="50" as="geometry"/>
                </mxCell>
                <mxCell id="64" style="edgeStyle=orthogonalEdgeStyle;rounded=0;orthogonalLoop=1;jettySize=auto;html=1;entryX=0;entryY=0;entryDx=0;entryDy=15;entryPerimeter=0;" edge="1" parent="1" source="61" target="50">
                    <mxGeometry relative="1" as="geometry"/>
                </mxCell>
                <mxCell id="65" style="edgeStyle=orthogonalEdgeStyle;rounded=0;orthogonalLoop=1;jettySize=auto;html=1;entryX=0;entryY=0;entryDx=0;entryDy=35;entryPerimeter=0;" edge="1" parent="1" source="61" target="43">
                    <mxGeometry relative="1" as="geometry"/>
                </mxCell>
                <mxCell id="66" style="edgeStyle=orthogonalEdgeStyle;rounded=0;orthogonalLoop=1;jettySize=auto;html=1;" edge="1" parent="1" source="61">
                    <mxGeometry relative="1" as="geometry">
                        <mxPoint x="-110" y="250" as="targetPoint"/>
                        <Array as="points">
                            <mxPoint x="-600" y="535"/>
                            <mxPoint x="-600" y="250"/>
                            <mxPoint x="-110" y="250"/>
                        </Array>
                    </mxGeometry>
                </mxCell>
                <mxCell id="61" value="Application" style="html=1;" vertex="1" parent="1">
                    <mxGeometry x="-740" y="510" width="110" height="50" as="geometry"/>
                </mxCell>
                <mxCell id="62" value="" style="endArrow=open;endFill=1;endSize=12;html=1;exitX=1;exitY=0.5;exitDx=0;exitDy=0;entryX=0;entryY=0.5;entryDx=0;entryDy=0;" edge="1" parent="1" source="61" target="58">
                    <mxGeometry width="160" relative="1" as="geometry">
                        <mxPoint x="-460" y="530" as="sourcePoint"/>
                        <mxPoint x="-300" y="530" as="targetPoint"/>
                        <Array as="points">
                            <mxPoint x="-120" y="540"/>
                            <mxPoint x="-120" y="610"/>
                        </Array>
                    </mxGeometry>
                </mxCell>
                <mxCell id="71" value="Middlewares" style="shape=module;align=left;spacingLeft=20;align=center;verticalAlign=top;" vertex="1" parent="1">
                    <mxGeometry x="-75" y="660" width="245" height="220" as="geometry"/>
                </mxCell>
                <mxCell id="67" value="AuthTokenCheckerMiddleware" style="html=1;" vertex="1" parent="1">
                    <mxGeometry x="-55" y="700" width="210" height="50" as="geometry"/>
                </mxCell>
                <mxCell id="69" value="ErrorHandlerMiddleware" style="html=1;" vertex="1" parent="1">
                    <mxGeometry x="-55" y="760" width="210" height="50" as="geometry"/>
                </mxCell>
                <mxCell id="70" value="StdoutLoggerMiddleware" style="html=1;" vertex="1" parent="1">
                    <mxGeometry x="-55" y="820" width="210" height="50" as="geometry"/>
                </mxCell>
                <mxCell id="68" value="" style="endArrow=block;dashed=1;endFill=0;endSize=12;html=1;exitX=0.805;exitY=-0.04;exitDx=0;exitDy=0;entryX=0.5;entryY=1;entryDx=0;entryDy=0;exitPerimeter=0;" edge="1" parent="1" source="67" target="60">
                    <mxGeometry width="160" relative="1" as="geometry">
                        <mxPoint x="-460" y="530" as="sourcePoint"/>
                        <mxPoint x="-300" y="530" as="targetPoint"/>
                    </mxGeometry>
                </mxCell>
                <mxCell id="72" value="" style="endArrow=block;dashed=1;endFill=0;endSize=12;html=1;exitX=1;exitY=0.5;exitDx=0;exitDy=0;entryX=1;entryY=0.5;entryDx=0;entryDy=0;" edge="1" parent="1" source="69" target="60">
                    <mxGeometry width="160" relative="1" as="geometry">
                        <mxPoint x="124.05000000000018" y="708" as="sourcePoint"/>
                        <mxPoint x="125" y="645" as="targetPoint"/>
                        <Array as="points">
                            <mxPoint x="190" y="785"/>
                            <mxPoint x="190" y="610"/>
                        </Array>
                    </mxGeometry>
                </mxCell>
                <mxCell id="73" value="" style="endArrow=block;dashed=1;endFill=0;endSize=12;html=1;exitX=1;exitY=0.5;exitDx=0;exitDy=0;entryX=1;entryY=0.25;entryDx=0;entryDy=0;" edge="1" parent="1" source="70" target="60">
                    <mxGeometry width="160" relative="1" as="geometry">
                        <mxPoint x="165" y="795" as="sourcePoint"/>
                        <mxPoint x="180" y="620" as="targetPoint"/>
                        <Array as="points">
                            <mxPoint x="190" y="845"/>
                            <mxPoint x="190" y="590"/>
                        </Array>
                    </mxGeometry>
                </mxCell>
                <mxCell id="78" value="ApiController" style="html=1;" vertex="1" parent="1">
                    <mxGeometry x="-740" y="810" width="110" height="50" as="geometry"/>
                </mxCell>
                <mxCell id="79" value="DictionaryService" style="html=1;" vertex="1" parent="1">
                    <mxGeometry x="-680" y="900" width="110" height="50" as="geometry"/>
                </mxCell>
                <mxCell id="80" value="Use" style="endArrow=open;endSize=12;dashed=1;html=1;exitX=0.25;exitY=1;exitDx=0;exitDy=0;entryX=0;entryY=0.5;entryDx=0;entryDy=0;rounded=0;" edge="1" parent="1">
                    <mxGeometry width="160" relative="1" as="geometry">
                        <mxPoint x="-722.5" y="860" as="sourcePoint"/>
                        <mxPoint x="-680" y="925" as="targetPoint"/>
                        <Array as="points">
                            <mxPoint x="-722" y="925"/>
                        </Array>
                    </mxGeometry>
                </mxCell>
                <mxCell id="81" value="" style="endArrow=block;dashed=1;endFill=0;endSize=12;html=1;exitX=1;exitY=0.5;exitDx=0;exitDy=0;entryX=0.5;entryY=1;entryDx=0;entryDy=0;rounded=0;" edge="1" parent="1">
                    <mxGeometry width="160" relative="1" as="geometry">
                        <mxPoint x="-570" y="925" as="sourcePoint"/>
                        <mxPoint x="-555" y="860" as="targetPoint"/>
                        <Array as="points">
                            <mxPoint x="-555" y="925"/>
                        </Array>
                    </mxGeometry>
                </mxCell>
                <mxCell id="82" value="Use" style="endArrow=open;endSize=12;dashed=1;html=1;exitX=1;exitY=0.5;exitDx=0;exitDy=0;entryX=0;entryY=0;entryDx=0;entryDy=15;rounded=0;entryPerimeter=0;" edge="1" parent="1" source="79" target="71">
                    <mxGeometry width="160" relative="1" as="geometry">
                        <mxPoint x="-712.5" y="870" as="sourcePoint"/>
                        <mxPoint x="-670" y="935" as="targetPoint"/>
                        <Array as="points">
                            <mxPoint x="-120" y="925"/>
                            <mxPoint x="-120" y="675"/>
                        </Array>
                    </mxGeometry>
                </mxCell>
                <mxCell id="83" value="Use" style="endArrow=open;endSize=12;dashed=1;html=1;exitX=1;exitY=0.75;exitDx=0;exitDy=0;entryX=0;entryY=0;entryDx=0;entryDy=15;rounded=0;entryPerimeter=0;" edge="1" parent="1" source="52">
                    <mxGeometry width="160" relative="1" as="geometry">
                        <mxPoint x="-560" y="935" as="sourcePoint"/>
                        <mxPoint x="-65" y="685" as="targetPoint"/>
                        <Array as="points">
                            <mxPoint x="-140" y="748"/>
                            <mxPoint x="-140" y="685"/>
                        </Array>
                    </mxGeometry>
                </mxCell>
                <mxCell id="84" value="Exercise Module" style="shape=module;align=left;spacingLeft=20;align=center;verticalAlign=top;" vertex="1" parent="1">
                    <mxGeometry x="-440" y="1010" width="290" height="200" as="geometry"/>
                </mxCell>
                <mxCell id="88" value="«interface»&lt;br&gt;&lt;b&gt;Exercise&lt;/b&gt;" style="html=1;" vertex="1" parent="1">
                    <mxGeometry x="-275" y="1055" width="110" height="50" as="geometry"/>
                </mxCell>
                <mxCell id="89" value="ApiController" style="html=1;" vertex="1" parent="1">
                    <mxGeometry x="-405" y="1055" width="110" height="50" as="geometry"/>
                </mxCell>
                <mxCell id="90" value="ExercseService" style="html=1;" vertex="1" parent="1">
                    <mxGeometry x="-345" y="1145" width="110" height="50" as="geometry"/>
                </mxCell>
                <mxCell id="91" value="Use" style="endArrow=open;endSize=12;dashed=1;html=1;exitX=0.25;exitY=1;exitDx=0;exitDy=0;entryX=0;entryY=0.5;entryDx=0;entryDy=0;rounded=0;" edge="1" parent="1">
                    <mxGeometry width="160" relative="1" as="geometry">
                        <mxPoint x="-387.5" y="1105" as="sourcePoint"/>
                        <mxPoint x="-345" y="1170" as="targetPoint"/>
                        <Array as="points">
                            <mxPoint x="-387" y="1170"/>
                        </Array>
                    </mxGeometry>
                </mxCell>
                <mxCell id="92" value="" style="endArrow=block;dashed=1;endFill=0;endSize=12;html=1;exitX=1;exitY=0.5;exitDx=0;exitDy=0;entryX=0.5;entryY=1;entryDx=0;entryDy=0;rounded=0;" edge="1" parent="1">
                    <mxGeometry width="160" relative="1" as="geometry">
                        <mxPoint x="-235" y="1170" as="sourcePoint"/>
                        <mxPoint x="-220" y="1105" as="targetPoint"/>
                        <Array as="points">
                            <mxPoint x="-220" y="1170"/>
                        </Array>
                    </mxGeometry>
                </mxCell>
                <mxCell id="93" value="Use" style="endArrow=open;endSize=12;dashed=1;html=1;exitX=1;exitY=0.5;exitDx=0;exitDy=0;entryX=0;entryY=0;entryDx=0;entryDy=35;rounded=0;entryPerimeter=0;" edge="1" parent="1" source="90" target="71">
                    <mxGeometry width="160" relative="1" as="geometry">
                        <mxPoint x="-377.5" y="1115" as="sourcePoint"/>
                        <mxPoint x="260" y="920" as="targetPoint"/>
                        <Array as="points">
                            <mxPoint x="-120" y="1170"/>
                            <mxPoint x="-110" y="695"/>
                        </Array>
                    </mxGeometry>
                </mxCell>
                <mxCell id="94" value="Use" style="endArrow=open;endSize=12;dashed=1;html=1;exitX=0;exitY=0.25;exitDx=0;exitDy=0;entryX=0.5;entryY=1;entryDx=0;entryDy=0;" edge="1" parent="1" source="90" target="79">
                    <mxGeometry width="160" relative="1" as="geometry">
                        <mxPoint x="-340" y="790" as="sourcePoint"/>
                        <mxPoint x="-180" y="790" as="targetPoint"/>
                        <Array as="points">
                            <mxPoint x="-625" y="1158"/>
                        </Array>
                    </mxGeometry>
                </mxCell>
            </root>
        </mxGraphModel>
    </diagram>
</mxfile>